<svg width="464" height="187" viewBox="0 0 464 187" fill="none" xmlns="http://www.w3.org/2000/svg">
<g clip-path="url(#clip0_296_8079)">
<path d="M22.2197 140.617V142.678H0V140.617H3.15539C3.89472 140.617 4.50203 140.366 5.00373 139.877C5.50542 139.388 5.75627 138.728 5.75627 137.896V105.938C5.75627 105.172 5.50542 104.525 5.00373 103.996C4.50203 103.481 3.88152 103.217 3.15539 103.217H0V101.235H22.8534C26.735 101.235 30.326 101.46 33.6134 101.896C36.9008 102.332 39.7526 103.058 42.1686 104.076C44.5847 105.093 46.4594 106.414 47.8061 108.026C49.1527 109.651 49.8128 111.632 49.8128 113.997C49.8128 115.648 49.3243 117.154 48.3606 118.528C47.3836 119.902 46.1029 121.091 44.4922 122.109C42.8947 123.126 41.0332 123.971 38.934 124.658C36.8348 125.345 34.6564 125.847 32.3988 126.177C34.1283 126.402 35.7126 126.904 37.1253 127.697C38.5379 128.489 39.8582 129.414 41.0596 130.458C42.2742 131.501 43.37 132.624 44.3734 133.84C45.3768 135.042 46.3142 136.152 47.2119 137.129C48.1097 138.12 48.9943 138.939 49.892 139.6C50.7898 140.26 51.6744 140.591 52.5721 140.591H56.1896V142.651H37.4421L21.5992 126.917H16.5559V137.869C16.5559 138.688 16.7935 139.349 17.2688 139.851C17.7441 140.353 18.3778 140.591 19.1567 140.591H22.2329L22.2197 140.617ZM16.5559 124.883H20.6486C26.2201 124.883 30.4977 123.971 33.4946 122.161C36.4916 120.351 37.9834 117.63 37.9834 114.01C37.9834 110.39 36.5312 107.748 33.6134 105.938C30.6957 104.129 26.3785 103.217 20.6486 103.217H19.1567C18.3646 103.217 17.7309 103.481 17.2688 103.996C16.7935 104.525 16.5559 105.159 16.5559 105.938V124.883Z" fill="white"/>
<path d="M57.1289 121.83C57.1289 118.924 57.9739 116.203 59.6506 113.679C61.3273 111.156 63.6245 108.937 66.5423 107.047C69.46 105.158 72.853 103.652 76.7477 102.556C80.6293 101.459 84.8144 100.904 89.2769 100.904C93.7393 100.904 97.8585 101.459 101.766 102.556C105.674 103.652 109.094 105.145 112.011 107.047C114.929 108.937 117.226 111.156 118.903 113.679C120.58 116.203 121.425 118.924 121.425 121.83C121.425 124.737 120.58 127.471 118.903 130.021C117.226 132.571 114.929 134.803 112.011 136.693C109.094 138.582 105.688 140.088 101.766 141.184C97.8453 142.281 93.6865 142.836 89.2769 142.836C84.8673 142.836 80.6293 142.294 76.7477 141.184C72.853 140.088 69.46 138.595 66.5423 136.693C63.6245 134.79 61.3273 132.571 59.6506 130.021C57.9739 127.471 57.1289 124.737 57.1289 121.83ZM88.2603 102.556C84.0619 102.556 80.6029 103.507 77.8964 105.396C75.1899 107.285 73.2227 109.676 71.9817 112.556C70.7406 115.436 70.2257 118.541 70.4106 121.87C70.5954 125.199 71.48 128.29 73.0907 131.184C74.6882 134.064 76.959 136.455 79.9031 138.357C82.8473 140.246 86.4383 141.197 90.7027 141.197C94.9671 141.197 98.2677 140.246 100.948 138.357C103.628 136.468 105.595 134.077 106.863 131.184C108.117 128.304 108.658 125.199 108.473 121.87C108.288 118.554 107.404 115.449 105.833 112.556C104.262 109.676 102.004 107.285 99.0599 105.396C96.1157 103.507 92.5247 102.556 88.2603 102.556Z" fill="white"/>
<path d="M144.845 140.617V142.678H125.227V140.617H131.458C132.25 140.617 132.871 140.366 133.346 139.877C133.821 139.388 134.059 138.728 134.059 137.896V105.938C134.059 105.172 133.821 104.525 133.346 103.996C132.871 103.481 132.237 103.217 131.458 103.217H125.227V101.235H146.034L169.442 132.453L189.456 101.235H205.841V103.217H202.685C201.893 103.217 201.259 103.481 200.797 103.996C200.322 104.525 200.084 105.159 200.084 105.938V137.896C200.084 138.715 200.322 139.375 200.797 139.877C201.273 140.379 201.906 140.617 202.685 140.617H205.841V142.678H183.621V140.617H186.697C187.489 140.617 188.11 140.366 188.585 139.877C189.06 139.388 189.298 138.728 189.298 137.896V105.199L165.256 142.678H163.289L136.026 106.11V137.909C136.026 138.728 136.264 139.388 136.739 139.89C137.214 140.392 137.848 140.63 138.627 140.63H144.859L144.845 140.617Z" fill="white"/>
<path d="M245.95 129.242H226.172L220.654 138.556C220.284 139.269 220.192 139.798 220.377 140.115C220.561 140.445 220.918 140.604 221.446 140.604H228.456V142.665H208.996V140.604H214.039C215.254 140.604 216.152 140.458 216.759 140.154C217.366 139.851 217.908 139.322 218.37 138.543L241.223 99.4121L264.156 138.873C264.473 139.428 264.869 139.851 265.331 140.154C265.806 140.458 266.572 140.604 267.615 140.604H270.77V142.665H246.821V140.604H249.976C250.716 140.604 251.178 140.392 251.389 139.983C251.6 139.573 251.521 139.005 251.151 138.292L245.95 129.229V129.242ZM244.603 127.181L236.008 112.187L227.347 127.181H244.603Z" fill="white"/>
<path d="M293.782 140.617V142.677H273.371V140.617H279.603C280.395 140.617 281.029 140.366 281.491 139.877C281.953 139.388 282.204 138.727 282.204 137.895V105.938C282.204 105.172 281.966 104.524 281.491 103.996C281.015 103.481 280.382 103.217 279.603 103.217H273.371V101.235H295.908L323.012 127.26V105.925C323.012 105.159 322.775 104.511 322.299 103.983C321.824 103.468 321.204 103.203 320.411 103.203H314.18V101.222H333.799V103.203H327.567C326.775 103.203 326.141 103.468 325.679 103.983C325.204 104.511 324.966 105.145 324.966 105.925V142.664H322.999L284.144 105.264V137.882C284.144 138.701 284.382 139.361 284.857 139.863C285.333 140.366 285.953 140.603 286.745 140.603H293.756L293.782 140.617Z" fill="white"/>
<path d="M336.254 121.83C336.254 118.924 337.099 116.203 338.776 113.679C340.452 111.156 342.75 108.937 345.667 107.047C348.585 105.158 351.978 103.652 355.873 102.556C359.754 101.459 363.939 100.904 368.402 100.904C372.864 100.904 376.983 101.459 380.891 102.556C384.799 103.652 388.219 105.145 391.136 107.047C394.054 108.937 396.351 111.156 398.028 113.679C399.705 116.203 400.55 118.924 400.55 121.83C400.55 124.737 399.705 127.471 398.028 130.021C396.351 132.571 394.054 134.803 391.136 136.693C388.219 138.582 384.813 140.088 380.891 141.184C376.97 142.281 372.811 142.836 368.402 142.836C363.992 142.836 359.754 142.294 355.873 141.184C351.978 140.088 348.585 138.595 345.667 136.693C342.75 134.79 340.452 132.571 338.776 130.021C337.099 127.471 336.254 124.737 336.254 121.83ZM367.385 102.556C363.187 102.556 359.728 103.507 357.021 105.396C354.315 107.285 352.348 109.676 351.107 112.556C349.866 115.436 349.351 118.541 349.536 121.87C349.72 125.199 350.605 128.29 352.216 131.184C353.813 134.064 356.084 136.455 359.028 138.357C361.972 140.246 365.563 141.197 369.828 141.197C374.092 141.197 377.393 140.246 380.073 138.357C382.753 136.468 384.72 134.077 385.987 131.184C387.242 128.304 387.783 125.199 387.598 121.87C387.413 118.554 386.529 115.449 384.958 112.556C383.387 109.676 381.129 107.285 378.185 105.396C375.241 103.507 371.65 102.556 367.385 102.556Z" fill="white"/>
<path d="M436.183 131.515L452.805 104.578C453.228 103.917 453.333 103.376 453.122 102.926C452.911 102.49 452.409 102.266 451.63 102.266H446.824V100.284H464.001V102.266H459.195C458.403 102.266 457.65 102.49 456.911 102.926C456.172 103.362 455.591 103.917 455.182 104.578L430.995 143.616L406.808 104.578C406.333 103.917 405.725 103.376 404.999 102.926C404.26 102.49 403.534 102.266 402.794 102.266H399.098V100.284H423.443V102.266H420.842C420.05 102.266 419.548 102.49 419.35 102.926C419.139 103.362 419.245 103.917 419.667 104.578L436.21 131.515H436.183Z" fill="white"/>
<path d="M119.127 185.6C117.662 186.326 115.285 187 111.43 187C104.631 187 100.406 183.592 100.406 178.268C100.406 172.944 105.225 169.535 111.496 169.535C115.351 169.535 117.517 170.249 118.586 170.803V174.331C117.015 173.485 114.876 172.785 111.351 172.785C106.717 172.785 103.905 174.714 103.905 178.188C103.905 181.663 106.902 183.737 111.47 183.737C114.81 183.737 117.173 183.05 119.141 182.112V185.586L119.127 185.6Z" fill="white"/>
<path d="M124.688 186.789V169.76H128.133V186.789H124.688Z" fill="white"/>
<path d="M144.581 187C137.901 187 133.676 184.147 133.676 178.334C133.676 172.521 138.442 169.549 144.805 169.549C148.727 169.549 151.077 170.341 152.265 170.896V174.344C151.116 173.856 148.621 172.799 144.621 172.799C139.564 172.799 137.161 174.873 137.161 178.255C137.161 181.637 139.907 183.737 144.502 183.737C146.667 183.737 148.436 183.381 149.717 182.852V179.787H144.357V176.577H153.163V184.887C151.578 186.023 148.819 186.974 144.568 186.974L144.581 187Z" fill="white"/>
<path d="M158.324 186.789L167.87 169.76H171.764L181.296 186.789H177.428L175.395 183.103H164.239L162.206 186.789H158.324ZM173.599 179.906L169.797 172.957L165.995 179.906H173.586H173.599Z" fill="white"/>
<path d="M186.434 186.789V169.76H197.273C202.105 169.76 203.716 171.86 203.716 174.793C203.716 177.277 202.369 179.245 199.689 179.959L205.419 186.789H201.234L195.728 180.236H189.879V186.789H186.434ZM197.009 177.026C199.306 177.026 200.217 176.167 200.217 174.912C200.217 173.657 199.346 172.97 197.233 172.97H189.879V177.026H197.022H197.009Z" fill="white"/>
<path d="M222.316 169.76H225.762V183.578H237.473V186.789H222.316V169.76Z" fill="white"/>
<path d="M241.488 178.281C241.488 172.852 245.766 169.549 252.446 169.549C259.127 169.549 263.378 172.852 263.378 178.281C263.378 183.711 259.114 187.014 252.446 187.014C245.779 187.014 241.488 183.711 241.488 178.281ZM259.879 178.281C259.879 174.912 257.278 172.812 252.446 172.812C247.614 172.812 244.987 174.912 244.987 178.281C244.987 181.65 247.588 183.751 252.446 183.751C257.305 183.751 259.879 181.637 259.879 178.281Z" fill="white"/>
<path d="M268.672 169.76H272.118V178.373C272.118 181.861 273.94 183.737 278.244 183.737C282.548 183.737 284.37 181.861 284.37 178.373V169.76H287.815V178.439C287.815 184.12 284.462 187 278.257 187C272.052 187 268.698 184.12 268.698 178.439V169.76H268.672Z" fill="white"/>
<path d="M297.413 173.948V186.789H294.086V169.76H298.007L309.691 181.412V169.76H313.018V186.789H310.285L297.413 173.948Z" fill="white"/>
<path d="M329.468 187C322.787 187 318.562 184.147 318.562 178.334C318.562 172.521 323.329 169.549 329.692 169.549C333.613 169.549 335.963 170.341 337.152 170.896V174.344C336.003 173.856 333.508 172.799 329.507 172.799C324.451 172.799 322.048 174.873 322.048 178.255C322.048 181.637 324.794 183.737 329.389 183.737C331.554 183.737 333.323 183.381 334.603 182.852V179.787H329.243V176.577H338.049V184.887C336.465 186.023 333.706 186.974 329.455 186.974L329.468 187Z" fill="white"/>
<path d="M344.586 169.76H361.129V172.97H348.032V176.273H359.359V179.483H348.032V183.592H361.129V186.802H344.586V169.773V169.76Z" fill="white"/>
<path d="M218.872 20.6743C217.353 21.0178 215.795 21.5198 214.237 22.1803C213.036 22.6823 211.861 23.3033 210.699 23.9902V35.0081C210.792 35.0081 210.871 34.9817 210.99 34.9817C211.491 34.9817 211.94 35.0081 212.31 35.0477H212.521C213.419 35.0477 214.475 34.9024 215.663 34.6118C216.878 34.3211 218.159 33.9116 219.466 33.3567C220.39 32.9736 221.301 32.5112 222.185 32.0224V27.3326H227.546L227.823 27.61C228.192 27.1476 228.523 26.6588 228.813 26.17C229.024 25.8001 229.183 25.4302 229.315 25.0471C228.417 25.0999 227.506 25.1396 226.542 25.1396H222.185V20.2119C221.156 20.2648 220.073 20.3969 218.872 20.6743Z" fill="white"/>
<path d="M222.583 40.9269C222.583 40.9269 222.662 40.8345 222.688 40.7816C222.345 40.2928 222.173 39.6983 222.173 38.9849V35.6426C220.932 36.2239 219.652 36.7391 218.358 37.1354C216.034 37.8488 213.935 38.2187 212.113 38.2187C211.862 38.2187 211.479 38.2055 210.938 38.1526C210.846 38.1526 210.766 38.1262 210.687 38.113V38.9849C210.687 39.8568 210.423 40.557 209.895 41.0855C209.367 41.6139 208.707 41.8781 207.928 41.8781H205.789C206.251 42.1555 206.726 42.4198 207.228 42.6311C208.746 43.2653 210.397 43.6748 212.153 43.8597C213.077 43.9522 213.961 44.0183 214.793 44.0711H219.388C219.797 44.0447 220.206 44.0183 220.642 43.9786C221.223 42.9218 221.883 41.9045 222.583 40.9401V40.9269Z" fill="white"/>
<path d="M250.293 33.0664C249.646 32.3794 248.959 31.7189 248.233 31.098C247.15 30.16 245.962 29.3409 244.721 28.5879C244.154 29.0635 243.573 29.5259 243.005 30.0279C240.985 31.8113 239.057 33.6212 237.288 35.4047C237.011 35.6821 236.76 35.9596 236.496 36.237L239.401 39.117C241.064 38.4036 242.701 37.6373 244.299 36.7786C246.398 35.6689 248.378 34.4007 250.293 33.0532V33.0664Z" fill="white"/>
<path d="M209.893 2.93235C210.421 3.48721 210.685 4.17418 210.685 4.99325V19.3931C211.306 19.1553 211.913 18.9043 212.534 18.7061C214.395 18.0984 216.283 17.6493 218.118 17.3586C219.558 17.1341 220.891 17.0152 222.172 16.9623V4.99325C222.172 4.17418 222.422 3.48721 222.924 2.93235C223.426 2.3775 224.099 2.10007 224.931 2.10007H226.528C232.615 2.10007 237.209 3.06446 240.312 4.99325C243.414 6.92204 244.959 9.7888 244.959 13.5803C244.959 17.3718 243.362 20.3311 240.18 22.2599C238.186 23.4753 235.651 24.2943 232.575 24.7435C232.311 26.4477 231.572 28.0594 230.357 29.5259C230.265 29.6315 230.159 29.7372 230.067 29.8561L231.426 31.2036C232.734 30.0675 234.067 28.9446 235.44 27.9009C237.341 26.4609 239.308 25.1134 241.315 23.8716C243.322 22.643 245.315 21.5465 247.23 20.6217C248.035 20.265 248.893 19.8951 249.844 19.5252C250.794 19.1553 251.785 18.825 252.788 18.5212C253.778 18.2306 254.782 17.9795 255.772 17.7814C255.996 17.7418 256.207 17.7153 256.432 17.6757C257.158 16.4075 257.554 15.0467 257.554 13.5671C257.554 11.057 256.841 8.94331 255.415 7.21268C253.989 5.49527 251.996 4.0817 249.421 3.01162C246.847 1.92833 243.824 1.1621 240.325 0.686505C236.826 0.224124 233.024 -0.0136719 228.892 -0.0136719H204.586V2.08686H207.939C208.718 2.08686 209.378 2.36429 209.907 2.91914L209.893 2.93235Z" fill="white"/>
<path d="M260.473 41.8781C259.523 41.8781 258.572 41.5214 257.621 40.8212C256.671 40.1211 255.72 39.2491 254.77 38.1923C254.07 37.4128 253.317 36.5541 252.565 35.6426C252.288 35.8407 252.024 36.0389 251.733 36.2371C249.33 37.8488 246.782 39.3416 244.142 40.6627C243.429 41.0194 242.703 41.3365 241.977 41.6667L243.297 42.9746C244.208 42.6179 245.145 42.3009 246.083 42.0499C248.023 41.5346 249.951 41.2704 251.826 41.2704C252.684 41.2704 253.529 41.3761 254.347 41.6007C255.205 41.8253 255.984 42.182 256.644 42.6708C257.159 43.0407 257.582 43.5295 257.952 44.0579H264.315V41.8649H260.46L260.473 41.8781Z" fill="white"/>
<path d="M262.597 22.0355C262.597 22.7885 262.439 23.5547 262.148 24.3077C261.844 25.074 261.448 25.8006 260.947 26.5008C260.458 27.2009 259.917 27.8747 259.349 28.522C258.782 29.1694 258.227 29.7374 257.699 30.2262C255.653 31.9701 253.435 33.6478 251.071 35.2331C248.695 36.8317 246.213 38.2849 243.612 39.5927C241.011 40.9006 238.371 42.0367 235.677 43.0144C232.984 43.9787 230.304 44.7186 227.65 45.2074C227.228 45.7358 226.766 46.4492 226.251 47.3475C225.736 48.2459 225.261 49.2235 224.825 50.2803C224.389 51.3372 224.019 52.4601 223.716 53.6095C223.412 54.772 223.267 55.895 223.267 57.0047C223.267 58.5636 223.623 59.8846 224.35 60.9679C225.076 62.0512 226.356 62.8042 228.218 63.2138C228.337 61.3114 228.733 59.4883 229.446 57.7445C230.145 56.0006 231.083 54.3625 232.231 52.8168C233.393 51.2844 234.727 49.8708 236.245 48.6026C237.763 47.3343 239.374 46.2378 241.077 45.3263C242.78 44.4147 244.563 43.7145 246.398 43.2257C248.233 42.7369 250.055 42.4859 251.837 42.4859C252.59 42.4859 253.342 42.5784 254.055 42.7766C254.781 42.9615 255.415 43.2654 255.956 43.6617C256.511 44.058 256.946 44.5732 257.29 45.1941C257.633 45.8151 257.805 46.5549 257.805 47.3871C257.805 49.2103 257.342 50.9012 256.405 52.4601C255.481 54.019 254.227 55.4458 252.682 56.7272C251.124 58.0219 249.355 59.1448 247.361 60.1224C245.368 61.0868 243.308 61.8927 241.183 62.54C239.057 63.1874 236.945 63.6497 234.859 63.9404C232.773 64.231 230.872 64.3103 229.168 64.1914C229.208 65.1822 229.38 66.107 229.683 66.9789C229.987 67.8508 230.409 68.617 230.964 69.2512C231.518 69.8985 232.179 70.4137 232.958 70.7836C233.736 71.1667 234.621 71.3517 235.598 71.3517C235.783 71.3517 235.981 71.3517 236.166 71.3253C236.351 71.2988 236.549 71.2724 236.733 71.2328C236.813 71.2328 236.865 71.2328 236.905 71.2064C236.945 71.1799 236.998 71.1799 237.077 71.1799C237.38 71.1007 237.631 71.0611 237.816 71.0611C237.935 71.0611 238.054 71.0743 238.186 71.1139C238.318 71.1535 238.384 71.2328 238.384 71.3385C238.384 71.497 238.278 71.6159 238.067 71.7084C237.856 71.8009 237.618 71.8801 237.328 71.933C237.037 71.9858 236.76 72.0254 236.469 72.0519C236.179 72.0651 235.981 72.0783 235.875 72.0783C233.406 72.0783 231.532 71.3517 230.238 69.8853C228.944 68.4189 228.271 66.4769 228.191 64.0461C225.234 63.8875 222.884 63.042 221.128 61.4832C219.385 59.9243 218.514 57.6652 218.514 54.706C218.514 53.1471 218.725 51.6675 219.135 50.2671C219.557 48.8668 220.125 47.4532 220.838 46.0529C220.719 46.0529 220.6 46.0529 220.468 46.0793C220.336 46.0925 220.217 46.1057 220.098 46.1057H219.478C219.135 46.1453 218.791 46.1717 218.448 46.185C218.105 46.1982 217.748 46.2114 217.365 46.2114C215.544 46.2114 213.55 46.0925 211.385 45.8679C209.22 45.6433 207.2 45.1281 205.325 44.3354C203.45 43.5428 201.879 42.3934 200.625 40.8874C199.371 39.3814 198.75 37.3601 198.75 34.8236C198.75 32.8552 199.146 31.0717 199.938 29.4732C200.73 27.8747 201.787 26.4611 203.094 25.2325C204.401 24.0039 205.906 22.9338 207.596 22.0487C209.286 21.1636 211.041 20.4105 212.863 19.8293C214.685 19.2348 216.481 18.7988 218.263 18.5214C220.046 18.2307 221.696 18.0986 223.214 18.0986C224.125 18.0986 225.062 18.1515 226.026 18.2704C226.99 18.3893 227.888 18.6271 228.706 18.9838C229.525 19.3405 230.185 19.8689 230.7 20.5559C231.215 21.2428 231.466 22.1544 231.466 23.2905C231.466 25.2589 230.779 27.082 229.393 28.7598C228.007 30.4376 226.317 31.8776 224.297 33.1194C222.29 34.348 220.164 35.3124 217.946 35.9994C215.728 36.6863 213.761 37.0298 212.058 37.0298C211.834 37.0298 211.464 37.0166 210.975 36.977C210.487 36.9373 210.236 36.792 210.236 36.5146C210.236 36.29 210.461 36.1711 210.923 36.1711C211.385 36.1711 211.781 36.1975 212.111 36.224H212.454C213.444 36.224 214.58 36.0786 215.874 35.7748C217.167 35.4709 218.488 35.035 219.861 34.4669C221.234 33.8988 222.554 33.2251 223.848 32.4456C225.142 31.6662 226.29 30.8075 227.32 29.8563C228.35 28.9051 229.168 27.8879 229.789 26.7782C230.409 25.6817 230.726 24.5588 230.726 23.4226C230.726 22.3657 230.475 21.5203 229.961 20.9126C229.446 20.3048 228.799 19.8557 228.02 19.5783C227.241 19.2876 226.396 19.1291 225.485 19.063C224.574 19.0102 223.716 18.9706 222.924 18.9706C221.59 18.9706 220.138 19.1555 218.54 19.5122C216.943 19.8689 215.332 20.3973 213.708 21.0843C212.084 21.7713 210.487 22.6035 208.956 23.5944C207.424 24.5852 206.051 25.6817 204.863 26.8971C203.675 28.1125 202.711 29.46 201.985 30.9396C201.258 32.4192 200.902 33.9781 200.902 35.6031C200.902 37.7696 201.457 39.5003 202.579 40.7817C203.701 42.0764 205.074 43.054 206.711 43.7409C208.348 44.4279 210.104 44.8639 211.979 45.0488C213.854 45.2338 215.557 45.3395 217.075 45.3395C217.828 45.3395 218.54 45.3263 219.214 45.2866C219.874 45.247 220.587 45.1941 221.353 45.1149C222 43.8995 222.712 42.7501 223.518 41.6404C224.31 40.5439 225.168 39.4342 226.079 38.3377C227.452 36.6335 228.997 34.9821 230.713 33.3836C232.443 31.7851 234.238 30.2791 236.126 28.8523C238.001 27.4255 239.928 26.1044 241.896 24.889C243.863 23.6736 245.804 22.6168 247.705 21.7052C248.457 21.3617 249.302 21.0182 250.24 20.6483C251.164 20.2916 252.114 19.9614 253.091 19.6839C254.055 19.3933 255.019 19.1687 255.969 18.9706C256.92 18.7856 257.791 18.6799 258.583 18.6799C259.798 18.6799 260.762 18.9309 261.488 19.4197C262.214 19.9085 262.571 20.7804 262.571 22.0355H262.597ZM261.567 21.4674C261.567 20.7012 261.316 20.186 260.828 19.8953C260.339 19.6047 259.772 19.4726 259.125 19.4726C257.646 19.4726 255.969 19.9217 254.121 20.8069C252.26 21.7052 250.332 22.8545 248.312 24.2813C246.305 25.7081 244.272 27.3198 242.226 29.1165C240.179 30.9132 238.252 32.7363 236.443 34.5594C234.647 36.3825 233.024 38.1263 231.571 39.8041C230.132 41.4819 228.997 42.8955 228.152 44.0712C230.766 43.5032 233.525 42.6841 236.403 41.6272C239.282 40.5703 242.107 39.3021 244.853 37.8357C247.599 36.3693 250.187 34.7311 252.59 32.908C254.992 31.0849 257.052 29.1165 258.768 26.9896C258.993 26.6857 259.27 26.3026 259.6 25.8534C259.93 25.4042 260.221 24.9154 260.511 24.4002C260.802 23.885 261.039 23.3698 261.25 22.8678C261.462 22.3525 261.567 21.8902 261.567 21.4674ZM255.996 46.8191C255.996 46.1321 255.837 45.5641 255.507 45.1149C255.177 44.6657 254.781 44.2958 254.28 44.0316C253.791 43.7674 253.25 43.5824 252.656 43.4635C252.061 43.3446 251.507 43.2918 250.979 43.2918C249.078 43.2918 247.058 43.7145 244.893 44.5468C242.727 45.3791 240.655 46.4888 238.687 47.8495C236.72 49.2103 234.964 50.7691 233.42 52.513C231.888 54.2568 230.792 56.0403 230.145 57.8634C229.538 59.5412 229.221 61.3775 229.182 63.3855C230.845 63.5044 232.667 63.3855 234.647 63.042C236.615 62.6986 238.608 62.1701 240.589 61.4435C242.582 60.7169 244.51 59.845 246.371 58.8278C248.233 57.7973 249.87 56.648 251.296 55.3797C252.722 54.1115 253.857 52.7508 254.715 51.3108C255.573 49.8708 255.996 48.3648 255.996 46.8191Z" fill="white"/>
<path d="M227.531 27.3336L230.489 30.2665L233.076 24.665L231.228 24.916L229.142 25.0746L227.531 27.3336Z" fill="white"/>
</g>
<defs>
<clipPath id="clip0_296_8079">
<rect width="464" height="187" fill="white"/>
</clipPath>
</defs>
</svg>
