<svg width="13" height="12" viewBox="0 0 13 12" fill="none" xmlns="http://www.w3.org/2000/svg">
<path d="M3.18543 0L4.34768 0.857144C4.03201 1.25714 3.70199 1.82857 3.35762 2.57143C3.01324 3.31429 2.74062 4.12857 2.53974 5.01429C2.33885 5.9 2.28146 6.78571 2.36755 7.67143C2.56843 7.58571 2.75497 7.52857 2.92715 7.5C3.09934 7.44286 3.27152 7.41429 3.44371 7.41429C4.01766 7.41429 4.49117 7.61429 4.86424 8.01429C5.23731 8.41429 5.42384 8.91429 5.42384 9.51429C5.42384 10.3143 5.19426 10.9286 4.7351 11.3571C4.27594 11.7857 3.71634 12 3.05629 12C2.08057 12 1.32009 11.6286 0.774834 10.8857C0.258278 10.1143 0 9.18571 0 8.1C0 7.35714 0.129139 6.48572 0.387417 5.48571C0.674393 4.45714 1.04746 3.44286 1.50662 2.44286C1.99448 1.44286 2.55408 0.628572 3.18543 0ZM10.7616 0L11.9238 0.857144C11.6082 1.25714 11.2781 1.82857 10.9338 2.57143C10.5894 3.31429 10.3168 4.12857 10.1159 5.01429C9.91501 5.9 9.85762 6.78571 9.94371 7.67143C10.1446 7.58571 10.3311 7.52857 10.5033 7.5C10.6755 7.44286 10.8477 7.41429 11.0199 7.41429C11.5938 7.41429 12.0673 7.61429 12.4404 8.01429C12.8135 8.41429 13 8.91429 13 9.51429C13 10.3143 12.7704 10.9286 12.3113 11.3571C11.8521 11.7857 11.2925 12 10.6325 12C9.65673 12 8.89625 11.6286 8.35099 10.8857C7.83444 10.1143 7.57616 9.18571 7.57616 8.1C7.57616 7.35714 7.7053 6.48572 7.96358 5.48571C8.25055 4.45714 8.62362 3.44286 9.08278 2.44286C9.57064 1.44286 10.1302 0.628572 10.7616 0Z" fill="white"/>
</svg>
