<svg width="1401" height="2215" viewBox="0 0 1401 2215" fill="none" xmlns="http://www.w3.org/2000/svg">
<path d="M720 661L720 0" stroke="#44413E" stroke-miterlimit="10"/>
<path d="M291 2927L291 363" stroke="#44413E" stroke-miterlimit="10"/>
<path d="M720 660L40 1340" stroke="#44413E" stroke-miterlimit="10"/>
<path d="M1400 563L1148 815" stroke="#44413E" stroke-miterlimit="10"/>
<path d="M980 660L1148 815" stroke="#44413E" stroke-miterlimit="10"/>
<path d="M1148 815L1148 1088" stroke="#44413E" stroke-miterlimit="10"/>
<path d="M720 660L40 660" stroke="#44413E" stroke-miterlimit="10"/>
<path d="M980 660L720 660" stroke="#44413E" stroke-miterlimit="10"/>
<path d="M40 1722L291 1722" stroke="#44413E" stroke-miterlimit="10"/>
<path d="M720 660L1400 1340" stroke="#44413E" stroke-miterlimit="10"/>
<path d="M40 1340L720 2020" stroke="#44413E" stroke-miterlimit="10"/>
<path d="M1400 1340L720 2020" stroke="#44413E" stroke-miterlimit="10"/>
<path d="M1148.16 1826.73L1148.16 2260.58" stroke="#44413E" stroke-miterlimit="10"/>
<path d="M1399 1575L429 2545" stroke="#44413E" stroke-miterlimit="10"/>
<path d="M203.176 2142.22H291.001" stroke="#44413E" stroke-miterlimit="10"/>
<path d="M719.188 2058.72L292.48 2485.43" stroke="#44413E" stroke-miterlimit="10"/>
</svg>
