<svg xmlns="http://www.w3.org/2000/svg" version="1.1" xmlns:xlink="http://www.w3.org/1999/xlink" width="37" height="40"><svg width="37" height="40" viewBox="0 0 37 40" fill="none" xmlns="http://www.w3.org/2000/svg">
<g clip-path="url(#clip0_296_8857)">
<path d="M11.331 11.4696C10.4711 11.6616 9.59237 11.9423 8.70989 12.3041C8.03396 12.5847 7.36553 12.9281 6.71588 13.3048V19.4157C6.76845 19.412 6.81727 19.4009 6.87736 19.4009C7.16275 19.4009 7.41059 19.4157 7.62464 19.4379H7.74481C8.248 19.4342 8.84508 19.3566 9.51726 19.1979C10.2045 19.0391 10.9255 18.8065 11.6615 18.5037C12.1835 18.2895 12.6942 18.0384 13.1974 17.7652V15.1657H16.2241L16.3818 15.3208C16.5921 15.0623 16.7798 14.7965 16.9375 14.5233C17.0577 14.3165 17.1478 14.1097 17.2154 13.9029C16.7122 13.9325 16.1978 13.9509 15.6533 13.9509H13.1936V11.2148C12.6153 11.2444 11.9994 11.3182 11.3273 11.4696H11.331Z" fill="white"></path>
<path d="M13.4337 22.7089C13.4525 22.6831 13.475 22.6572 13.4938 22.6277C13.3023 22.3581 13.2009 22.0295 13.2009 21.6307V19.7734C12.4987 20.0984 11.7814 20.3827 11.0454 20.6042C9.73482 21.003 8.54818 21.2024 7.52301 21.2024C7.38407 21.2024 7.16251 21.1913 6.8621 21.1692C6.80952 21.1655 6.76821 21.1544 6.7194 21.147V21.6344C6.7194 22.1218 6.56919 22.5095 6.26877 22.8012C5.96836 23.0929 5.59659 23.2406 5.15723 23.2406H3.94806C4.20717 23.3957 4.47379 23.5434 4.76294 23.6616C5.61912 24.0123 6.55417 24.2413 7.54179 24.341C8.06376 24.3927 8.55945 24.4296 9.03636 24.4554H11.635C11.864 24.4407 12.0968 24.4259 12.3447 24.4037C12.6751 23.8203 13.0432 23.2554 13.4412 22.7163L13.4337 22.7089Z" fill="white"></path>
<path d="M29.0781 18.3444C28.7101 17.9677 28.3271 17.5985 27.9178 17.2514C27.3057 16.7308 26.6372 16.2766 25.935 15.8594C25.6121 16.1252 25.2891 16.3763 24.9662 16.6569C23.8208 17.6465 22.7356 18.6508 21.7367 19.6404C21.579 19.7955 21.44 19.9432 21.2898 20.0983L22.9308 21.7008C23.8659 21.302 24.7934 20.8774 25.6984 20.4084C26.8813 19.7918 28.0041 19.0866 29.0781 18.3444Z" fill="white"></path>
<path d="M6.2679 1.62857C6.56831 1.93504 6.71852 2.31905 6.71852 2.76953V10.7599C7.064 10.627 7.40948 10.4904 7.76247 10.3796C8.81768 10.0436 9.87664 9.79252 10.9168 9.63005C11.728 9.50451 12.4828 9.44174 13.2 9.4122V2.76953C13.2 2.31536 13.3427 1.93504 13.6243 1.62857C13.9097 1.3221 14.289 1.16702 14.7622 1.16702H15.6597C19.0994 1.16702 21.6943 1.70242 23.4442 2.76953C25.1941 3.84033 26.0728 5.42807 26.0728 7.53275C26.0728 9.63743 25.1716 11.2769 23.3766 12.344C22.25 13.016 20.8155 13.4739 19.0806 13.7249C18.9304 14.6702 18.5136 15.5601 17.8264 16.3761C17.7738 16.4389 17.7137 16.4943 17.6612 16.557L18.4272 17.3029C19.1633 16.6678 19.9181 16.0512 20.6954 15.4715C21.7656 14.6739 22.8809 13.9243 24.0112 13.2412C25.1415 12.5581 26.2681 11.9526 27.3496 11.4393C27.804 11.2399 28.2884 11.0406 28.8291 10.8338C29.3661 10.6307 29.9219 10.4424 30.4889 10.2799C31.0522 10.1174 31.6155 9.98083 32.1713 9.87006C32.299 9.84421 32.4191 9.83313 32.5468 9.81467C32.9599 9.11311 33.1814 8.35247 33.1814 7.53645C33.1814 6.1444 32.7796 4.97021 31.976 4.01388C31.1724 3.05754 30.0421 2.28213 28.5926 1.68027C27.1431 1.08209 25.4307 0.653772 23.4592 0.391611C21.4877 0.133141 19.336 0.00390625 17.0003 0.00390625H3.25998V1.17071H5.1526C5.59196 1.17071 5.96372 1.32579 6.26414 1.63226L6.2679 1.62857Z" fill="white"></path>
<path d="M34.8216 23.2334C34.2846 23.2334 33.7476 23.0378 33.2106 22.65C32.6736 22.2623 32.1366 21.7749 31.6034 21.1915C31.2053 20.7595 30.7847 20.2795 30.3566 19.7773C30.1989 19.8844 30.0487 19.9989 29.8872 20.106C28.5316 21.0032 27.0896 21.8303 25.6063 22.5651C25.2045 22.7645 24.7914 22.9381 24.3821 23.1264L25.1256 23.8501C25.6439 23.6507 26.1696 23.4808 26.6991 23.3368C27.7956 23.0488 28.8846 22.9011 29.9436 22.9011C30.4242 22.9011 30.9049 22.9602 31.3668 23.0821C31.8512 23.2076 32.2906 23.407 32.6661 23.6765C32.959 23.8833 33.1956 24.1492 33.4021 24.4446H36.9921V23.2298H34.8178L34.8216 23.2334Z" fill="white"></path>
<path d="M36.0201 12.2258C36.0201 12.6468 35.9337 13.0677 35.7647 13.4886C35.592 13.9096 35.3667 14.3157 35.0888 14.7034C34.8109 15.0948 34.5105 15.4678 34.1876 15.8259C33.8646 16.1841 33.5567 16.5017 33.2563 16.7749C32.0997 17.7423 30.8492 18.6691 29.5123 19.5553C28.1717 20.4415 26.771 21.2464 25.3028 21.9738C23.8345 22.7012 22.3399 23.3326 20.819 23.8717C19.2982 24.4071 17.7886 24.8133 16.2903 25.0865C16.0537 25.3819 15.7908 25.777 15.5017 26.2718C15.2125 26.7666 14.9459 27.3094 14.6981 27.9002C14.4502 28.4909 14.2437 29.1076 14.0709 29.7501C13.8982 30.3925 13.8156 31.0203 13.8156 31.6295C13.8156 32.4935 14.0184 33.2246 14.4277 33.8265C14.8333 34.4284 15.5618 34.8419 16.6132 35.0745C16.6771 34.0222 16.9061 33.0105 17.3042 32.0394C17.7022 31.0719 18.2242 30.1599 18.8776 29.307C19.531 28.454 20.2858 27.6749 21.142 26.9697C21.9982 26.2644 22.9107 25.6589 23.872 25.153C24.8371 24.6471 25.836 24.2594 26.8762 23.9862C27.9164 23.713 28.9378 23.5763 29.9442 23.5763C30.3723 23.5763 30.7891 23.628 31.1984 23.7351C31.604 23.8422 31.9645 24.0047 32.2762 24.2262C32.5878 24.4477 32.8394 24.7321 33.031 25.0791C33.2225 25.4262 33.3201 25.8324 33.3201 26.294C33.3201 27.3057 33.0572 28.2436 32.5315 29.1039C32.0058 29.9679 31.3036 30.7581 30.4248 31.4744C29.5461 32.1908 28.5472 32.8185 27.4207 33.3539C26.2941 33.8893 25.1338 34.3397 23.9359 34.6942C22.7342 35.0524 21.5476 35.3109 20.3684 35.4696C19.1893 35.6284 18.1191 35.6764 17.154 35.6136C17.1765 36.1601 17.2704 36.677 17.4431 37.1608C17.6159 37.6445 17.8562 38.0654 18.1679 38.4236C18.4796 38.7817 18.8513 39.066 19.2944 39.2765C19.7338 39.487 20.2295 39.5941 20.789 39.5941C20.8979 39.5941 21.003 39.5904 21.1119 39.5793C21.2171 39.5682 21.326 39.5534 21.4349 39.5313C21.4762 39.5313 21.51 39.5276 21.5325 39.5165C21.5551 39.5054 21.5851 39.5017 21.6302 39.5017C21.8029 39.4574 21.9381 39.439 22.047 39.439C22.1108 39.439 22.1822 39.4501 22.2573 39.4685C22.3324 39.4907 22.3699 39.5313 22.3699 39.5941C22.3699 39.679 22.3099 39.7454 22.1934 39.8008C22.0733 39.8525 21.9381 39.8968 21.7766 39.9264C21.6151 39.9596 21.4537 39.9781 21.296 39.9891C21.1345 40.0002 21.0218 40.0039 20.958 40.0039C19.5648 40.0039 18.5058 39.5978 17.7773 38.7891C17.0488 37.9768 16.662 36.8986 16.6207 35.5509C14.9497 35.4659 13.6203 34.9933 12.6365 34.1293C11.6526 33.2652 11.1569 32.0135 11.1569 30.3704C11.1569 29.5064 11.2733 28.6866 11.5099 27.9039C11.7465 27.1248 12.0657 26.3456 12.475 25.5665C12.4111 25.5665 12.3398 25.5702 12.2647 25.5813C12.1896 25.5924 12.122 25.5961 12.0582 25.5961H11.7052C11.5137 25.6182 11.3184 25.633 11.1269 25.6441C10.9354 25.6552 10.7288 25.6589 10.5148 25.6589C9.48585 25.6589 8.36304 25.5961 7.1426 25.4705C5.92216 25.345 4.78058 25.0607 3.72161 24.6176C2.66265 24.1745 1.77642 23.5394 1.07044 22.7049C0.364463 21.8741 0.0114746 20.7516 0.0114746 19.3411C0.0114746 18.2482 0.236787 17.2549 0.687411 16.3724C1.13803 15.4862 1.73136 14.7034 2.47113 14.0203C3.21091 13.3373 4.05583 12.7465 5.00965 12.2517C5.96347 11.7569 6.95484 11.347 7.98001 11.0184C9.00894 10.6935 10.0266 10.4498 11.033 10.291C12.0394 10.1322 12.9707 10.0547 13.8269 10.0547C14.3413 10.0547 14.8708 10.0842 15.4191 10.1507C15.9636 10.2135 16.4668 10.3464 16.9287 10.5458C17.3905 10.7452 17.7623 11.0369 18.0552 11.4135C18.3444 11.7938 18.4871 12.2997 18.4871 12.9311C18.4871 14.0277 18.0965 15.0358 17.3154 15.9626C16.5344 16.8894 15.5768 17.6943 14.439 18.3811C13.3049 19.0642 12.1107 19.5959 10.8565 19.9762C9.60226 20.3565 8.49447 20.5449 7.53314 20.5449C7.40547 20.5449 7.19893 20.5338 6.92104 20.5153C6.64316 20.4932 6.50422 20.4082 6.50422 20.2605C6.50422 20.135 6.63189 20.0722 6.891 20.0722C7.15011 20.0722 7.37167 20.0833 7.56694 20.1055H7.75845C8.31422 20.1055 8.95636 20.0205 9.68487 19.8544C10.4134 19.6845 11.1644 19.4445 11.9342 19.127C12.7041 18.8094 13.4551 18.4365 14.1836 18.0045C14.9121 17.5725 15.5655 17.0924 16.1438 16.5681C16.7221 16.0401 17.1878 15.4715 17.5408 14.8622C17.8937 14.253 18.0702 13.629 18.0702 12.9975C18.0702 12.4068 17.9238 11.9452 17.6346 11.6092C17.3455 11.2732 16.9812 11.0258 16.5419 10.867C16.1025 10.7082 15.6256 10.6159 15.1111 10.5827C14.5967 10.5495 14.116 10.5347 13.6654 10.5347C12.9143 10.5347 12.092 10.6344 11.1907 10.8338C10.2895 11.0332 9.3807 11.3249 8.46068 11.7015C7.54065 12.0781 6.64691 12.5434 5.77946 13.0899C4.91201 13.6363 4.1422 14.2493 3.46626 14.9213C2.79032 15.597 2.24957 16.3429 1.84401 17.1663C1.43845 17.986 1.23191 18.85 1.23191 19.7584C1.23191 20.9584 1.54735 21.9184 2.17823 22.6348C2.8091 23.3511 3.58643 23.8976 4.50645 24.2779C5.42647 24.6582 6.41785 24.8982 7.47681 25.0053C8.53578 25.1124 9.49711 25.1641 10.3533 25.1641C10.7814 25.1641 11.1832 25.153 11.5587 25.1345C11.9342 25.1124 12.336 25.0828 12.7641 25.0385C13.1284 24.3665 13.534 23.724 13.9846 23.1111C14.4352 22.5018 14.9159 21.8889 15.4303 21.2796C16.2039 20.3307 17.0751 19.415 18.0477 18.5325C19.0241 17.6463 20.038 16.8118 21.1007 16.0216C22.1597 15.2315 23.2487 14.5004 24.3602 13.8246C25.4755 13.1526 26.5683 12.5618 27.6385 12.056C28.0666 11.8677 28.5435 11.672 29.0692 11.4726C29.595 11.2732 30.1282 11.0923 30.6764 10.9335C31.221 10.7747 31.7617 10.6455 32.2987 10.5384C32.8319 10.435 33.3276 10.3796 33.7782 10.3796C34.4617 10.3796 35.0099 10.5162 35.4155 10.7895C35.8211 11.0627 36.0276 11.5464 36.0276 12.2443L36.0201 12.2258ZM35.4418 11.912C35.4418 11.491 35.3029 11.1993 35.025 11.0443C34.7471 10.8855 34.4241 10.8079 34.0599 10.8079C33.2262 10.8079 32.2799 11.0553 31.2322 11.5501C30.1808 12.0449 29.0918 12.6874 27.9539 13.4776C26.8199 14.2677 25.6708 15.1613 24.5142 16.162C23.3576 17.1626 22.2686 18.1669 21.2509 19.1787C20.2332 20.1904 19.317 21.1578 18.5058 22.0846C17.691 23.0114 17.0488 23.8016 16.5794 24.4551C18.059 24.1376 19.6099 23.6871 21.2396 23.0963C22.8656 22.5055 24.4578 21.8077 26.0125 20.9953C27.5671 20.183 29.0204 19.2747 30.3835 18.2629C31.7467 17.2512 32.907 16.1583 33.8684 14.9767C33.996 14.8068 34.1538 14.5964 34.334 14.3453C34.5143 14.0942 34.687 13.8246 34.8485 13.5403C35.0099 13.256 35.1489 12.9717 35.2653 12.6874C35.3817 12.4031 35.4418 12.1446 35.4418 11.9157V11.912ZM32.2912 25.9727C32.2912 25.5924 32.2011 25.2785 32.0171 25.0238C31.833 24.7727 31.604 24.5733 31.3261 24.4256C31.0482 24.2779 30.7403 24.1745 30.4098 24.108C30.0756 24.0453 29.7602 24.012 29.4598 24.012C28.3895 24.012 27.2442 24.2447 26.0238 24.7062C24.8033 25.1715 23.6354 25.7807 22.5202 26.5377C21.4049 27.2946 20.4135 28.1586 19.5498 29.1297C18.6823 30.0972 18.0665 31.0867 17.7022 32.0984C17.3605 33.0252 17.1765 34.048 17.1577 35.1632C18.1003 35.2259 19.1292 35.1632 20.2407 34.9748C21.3523 34.7865 22.4751 34.4911 23.5979 34.0887C24.7245 33.6899 25.8097 33.2025 26.8612 32.6338C27.9089 32.0652 28.8364 31.4264 29.64 30.7212C30.4436 30.0159 31.0858 29.2627 31.5664 28.4614C32.0471 27.6602 32.2912 26.8294 32.2912 25.9653V25.9727Z" fill="white"></path>
<path d="M16.2255 15.1643L17.8891 16.7889L19.3499 13.6836L18.3097 13.8202L17.1305 13.9125L16.2255 15.1643Z" fill="white"></path>
</g>
<defs>
<clipPath id="SvgjsClipPath1133">
<rect width="37" height="40" fill="white"></rect>
</clipPath>
</defs>
</svg><style>@media (prefers-color-scheme: light) { :root { filter: contrast(1) brightness(0.6); } }
@media (prefers-color-scheme: dark) { :root { filter: none; } }
</style></svg>